<svg width="486" height="189" viewBox="0 0 486 189" fill="none" xmlns="http://www.w3.org/2000/svg" id="CCA_LOGO">
<path fill-rule="evenodd" clip-rule="evenodd" d="M381.714 0.383042C373.848 1.29773 363.651 3.9567 355.909 7.11202C342.392 12.6213 329.123 22.5397 319.462 34.3573L317.457 36.8096L315.338 34.3573C312.108 30.6186 305.581 24.335 301.5 21.033C283.104 6.15225 259.696 -1.07466 235.69 0.714719C211.154 2.5433 192.454 11.2255 174.704 29.0307L168.104 35.6511L166.304 33.5818C158.142 24.1993 147.712 16.2146 136.182 10.5218C122.005 3.5215 107.701 0.40578 91.8445 0.864494C81.1933 1.17266 73.7351 2.47155 64.1825 5.68294C40.0341 13.8002 20.1924 31.4105 9.01573 54.6442C5.08575 62.814 2.81276 70.0021 0.945079 80.1687C-0.224181 86.5343 -0.329728 101.697 0.747326 108.539C5.5668 139.145 24.0278 164.933 51.0448 178.798C65.2556 186.091 76.785 188.926 92.2381 188.926H100.288L100.186 170.597L100.084 152.268L92.4331 152.037C84.0827 151.786 81.7979 151.404 74.964 149.119C66.2848 146.218 59.8444 142.246 53.3719 135.804C45.1255 127.597 39.7147 117.788 37.2498 106.577C36.1359 101.51 36.2313 88.6824 37.4237 83.1911C39.9085 71.748 44.7928 62.7784 52.9752 54.6305C64.0467 43.6061 77.7035 37.976 93.3547 37.9847C101.627 37.989 107.83 39.16 115.191 42.1068C122.978 45.2249 129.096 49.4505 135.398 56.0646C140.938 61.8797 145.323 69.1247 147.774 76.5135C148.631 79.0952 148.64 79.3089 148.125 83.9627C147.419 90.3334 147.495 101.299 148.287 107.181C150.232 121.627 155.847 136.414 163.77 147.955C177.888 168.519 197.89 182.035 222.504 187.645C226.38 188.529 227.908 188.648 237.512 188.815L248.204 189V170.438V151.876L241.239 151.857C233.475 151.837 229.255 151.156 222.822 148.888C198.121 140.177 182.686 116.557 184.703 90.556C186.353 69.2909 199.693 50.7902 219.365 42.4859C226.563 39.4474 232.975 38.2125 241.533 38.216C248.462 38.2191 252.306 38.7558 258.289 40.5558C275.584 45.7585 289.126 58.7021 295.265 75.8991C297.637 82.5423 297.989 84.888 297.988 94.0466C297.988 104.842 299.088 112.302 302.194 122.564C306.594 137.103 314.157 149.705 325.067 160.679C343.328 179.046 366.551 188.926 391.461 188.926C397.094 188.926 397.217 188.908 397.449 188.044C397.764 186.87 397.765 156.759 397.45 153.749L397.203 151.391L390.289 151.188C380.898 150.913 375.215 149.611 367.529 145.973C350.529 137.926 338.605 122.313 335.508 104.044C334.572 98.5216 334.646 90.0252 335.679 84.3893C337.16 76.3167 340.385 68.4205 344.851 61.9385C347.583 57.9712 353.554 51.8088 357.659 48.7174C363.71 44.1604 372.617 40.1547 380.157 38.5982C394.152 35.7099 409.697 38.4038 421.6 45.78C435.707 54.5227 444.75 67.667 448.197 84.441C448.77 87.2321 448.857 93.1554 448.985 138.252L449.13 188.926H467.565H486L485.87 131.979C485.723 67.945 486.038 74.4003 482.557 64.0537C480.348 57.4906 475.674 47.898 472.05 42.4902C456.366 19.0876 432.492 4.1492 405.033 0.557118C400.015 -0.0995879 386.717 -0.19878 381.714 0.383042Z" fill="#fff"/>
</svg>
