<svg width="486" height="241" viewBox="0 0 486 241" fill="none" xmlns="http://www.w3.org/2000/svg">
<path fill-rule="evenodd" clip-rule="evenodd" d="M381.714 0.383042C373.848 1.29773 363.651 3.9567 355.909 7.11202C342.392 12.6213 329.123 22.5397 319.462 34.3573L317.457 36.8096L315.338 34.3573C312.108 30.6186 305.581 24.335 301.5 21.033C283.104 6.15225 259.696 -1.07466 235.69 0.714719C211.154 2.5433 192.454 11.2255 174.704 29.0307L168.104 35.6511L166.304 33.5818C158.142 24.1993 147.712 16.2146 136.182 10.5218C122.005 3.5215 107.701 0.40578 91.8445 0.864494C81.1933 1.17266 73.7351 2.47155 64.1825 5.68294C40.0341 13.8002 20.1924 31.4105 9.01573 54.6442C5.08575 62.814 2.81276 70.0021 0.945079 80.1687C-0.224181 86.5343 -0.329728 101.697 0.747326 108.539C5.5668 139.145 24.0278 164.933 51.0448 178.798C65.2556 186.091 76.785 188.926 92.2381 188.926H100.288L100.186 170.597L100.084 152.268L92.4331 152.037C84.0827 151.786 81.7979 151.404 74.964 149.119C66.2848 146.218 59.8444 142.246 53.3719 135.804C45.1255 127.597 39.7147 117.788 37.2498 106.577C36.1359 101.51 36.2313 88.6824 37.4237 83.1911C39.9085 71.748 44.7928 62.7784 52.9752 54.6305C64.0467 43.6061 77.7035 37.976 93.3547 37.9847C101.627 37.989 107.83 39.16 115.191 42.1068C122.978 45.2249 129.096 49.4505 135.398 56.0646C140.938 61.8797 145.323 69.1247 147.774 76.5135C148.631 79.0952 148.64 79.3089 148.125 83.9627C147.419 90.3334 147.495 101.299 148.287 107.181C150.232 121.627 155.847 136.414 163.77 147.955C177.888 168.519 197.89 182.035 222.504 187.645C226.38 188.529 227.908 188.648 237.512 188.815L248.204 189V170.438V151.876L241.239 151.857C233.475 151.837 229.255 151.156 222.822 148.888C198.121 140.177 182.686 116.557 184.703 90.556C186.353 69.2909 199.693 50.7902 219.365 42.4859C226.563 39.4474 232.975 38.2125 241.533 38.216C248.462 38.2191 252.306 38.7558 258.289 40.5558C275.584 45.7585 289.126 58.7021 295.265 75.8991C297.637 82.5423 297.989 84.888 297.988 94.0466C297.988 104.842 299.088 112.302 302.194 122.564C306.594 137.103 314.157 149.705 325.067 160.679C343.328 179.046 366.551 188.926 391.461 188.926C397.094 188.926 397.217 188.908 397.449 188.044C397.764 186.87 397.765 156.759 397.45 153.749L397.203 151.391L390.289 151.188C380.898 150.913 375.215 149.611 367.529 145.973C350.529 137.926 338.605 122.313 335.508 104.044C334.572 98.5216 334.646 90.0252 335.679 84.3893C337.16 76.3167 340.385 68.4205 344.851 61.9385C347.583 57.9712 353.554 51.8088 357.659 48.7174C363.71 44.1604 372.617 40.1547 380.157 38.5982C394.152 35.7099 409.698 38.4038 421.6 45.78C435.707 54.5227 444.75 67.667 448.197 84.441C448.77 87.2321 448.857 93.1554 448.985 138.252L449.13 188.926H467.565H486L485.87 131.979C485.723 67.945 486.038 74.4003 482.557 64.0537C480.348 57.4906 475.674 47.898 472.05 42.4902C456.366 19.0876 432.492 4.1492 405.033 0.557118C400.015 -0.0995879 386.717 -0.19878 381.714 0.383042Z" fill="white"/>
<path d="M45.6328 231.976C45.3164 234.683 44.3145 236.775 42.627 238.251C40.9512 239.716 38.7188 240.449 35.9297 240.449C32.9063 240.449 30.4805 239.365 28.6524 237.197C26.836 235.029 25.9278 232.128 25.9278 228.496V226.035C25.9278 223.656 26.3496 221.564 27.1934 219.759C28.0489 217.955 29.2559 216.572 30.8145 215.611C32.3731 214.638 34.1778 214.152 36.2285 214.152C38.9473 214.152 41.127 214.914 42.7676 216.437C44.4082 217.949 45.3633 220.046 45.6328 222.73H42.2403C41.9473 220.691 41.3086 219.214 40.3242 218.3C39.3516 217.386 37.9864 216.929 36.2285 216.929C34.0723 216.929 32.3789 217.726 31.1485 219.32C29.9297 220.914 29.3203 223.181 29.3203 226.123V228.601C29.3203 231.378 29.9004 233.587 31.0606 235.228C32.2207 236.869 33.8438 237.689 35.9297 237.689C37.8047 237.689 39.2403 237.267 40.2364 236.423C41.2442 235.568 41.9121 234.085 42.2403 231.976H45.6328ZM64.7227 228.267H53.6309V237.337H66.5157V240.097H50.2559V214.503H66.3399V217.281H53.6309V225.507H64.7227V228.267ZM90.3867 240.097H86.9942L74.1094 220.375V240.097H70.7168V214.503H74.1094L87.0293 234.314V214.503H90.3867V240.097ZM113.537 217.281H105.311V240.097H101.953V217.281H93.7442V214.503H113.537V217.281ZM131.801 228.267H120.709V237.337H133.594V240.097H117.334V214.503H133.418V217.281H120.709V225.507H131.801V228.267ZM147.182 229.744H141.17V240.097H137.777V214.503H146.25C149.133 214.503 151.348 215.16 152.895 216.472C154.453 217.785 155.232 219.695 155.232 222.203C155.232 223.796 154.799 225.185 153.932 226.369C153.076 227.552 151.881 228.437 150.346 229.023L156.357 239.886V240.097H152.736L147.182 229.744ZM141.17 226.984H146.355C148.031 226.984 149.361 226.55 150.346 225.683C151.342 224.816 151.84 223.656 151.84 222.203C151.84 220.621 151.365 219.408 150.416 218.564C149.479 217.72 148.119 217.292 146.338 217.281H141.17V226.984ZM183.023 228.794H172.283V240.097H168.908V214.503H184.764V217.281H172.283V226.035H183.023V228.794ZM208.494 228.126C208.494 230.634 208.072 232.826 207.229 234.701C206.385 236.564 205.189 237.988 203.643 238.972C202.096 239.957 200.291 240.449 198.229 240.449C196.213 240.449 194.426 239.957 192.867 238.972C191.309 237.976 190.096 236.564 189.229 234.736C188.373 232.896 187.934 230.769 187.91 228.355V226.509C187.91 224.048 188.338 221.875 189.193 219.988C190.049 218.101 191.256 216.66 192.814 215.664C194.385 214.656 196.178 214.152 198.193 214.152C200.244 214.152 202.049 214.65 203.607 215.646C205.178 216.63 206.385 218.066 207.229 219.953C208.072 221.828 208.494 224.013 208.494 226.509V228.126ZM205.137 226.474C205.137 223.439 204.527 221.113 203.309 219.496C202.09 217.867 200.385 217.052 198.193 217.052C196.061 217.052 194.379 217.867 193.148 219.496C191.93 221.113 191.303 223.363 191.268 226.246V228.126C191.268 231.068 191.883 233.382 193.113 235.07C194.355 236.746 196.061 237.583 198.229 237.583C200.408 237.583 202.096 236.792 203.291 235.21C204.486 233.617 205.102 231.337 205.137 228.373V226.474ZM222.943 229.744H216.932V240.097H213.539V214.503H222.012C224.895 214.503 227.109 215.16 228.656 216.472C230.215 217.785 230.994 219.695 230.994 222.203C230.994 223.796 230.561 225.185 229.693 226.369C228.838 227.552 227.643 228.437 226.107 229.023L232.119 239.886V240.097H228.498L222.943 229.744ZM216.932 226.984H222.117C223.793 226.984 225.123 226.55 226.107 225.683C227.104 224.816 227.602 223.656 227.602 222.203C227.602 220.621 227.127 219.408 226.178 218.564C225.24 217.72 223.881 217.292 222.1 217.281H216.932V226.984ZM263.496 231.976C263.18 234.683 262.178 236.775 260.49 238.251C258.814 239.716 256.582 240.449 253.793 240.449C250.77 240.449 248.344 239.365 246.516 237.197C244.699 235.029 243.791 232.128 243.791 228.496V226.035C243.791 223.656 244.213 221.564 245.057 219.759C245.912 217.955 247.119 216.572 248.678 215.611C250.236 214.638 252.041 214.152 254.092 214.152C256.811 214.152 258.99 214.914 260.631 216.437C262.272 217.949 263.227 220.046 263.496 222.73H260.104C259.811 220.691 259.172 219.214 258.188 218.3C257.215 217.386 255.85 216.929 254.092 216.929C251.936 216.929 250.242 217.726 249.012 219.32C247.793 220.914 247.184 223.181 247.184 226.123V228.601C247.184 231.378 247.764 233.587 248.924 235.228C250.084 236.869 251.707 237.689 253.793 237.689C255.668 237.689 257.104 237.267 258.1 236.423C259.107 235.568 259.775 234.085 260.104 231.976H263.496ZM282.252 233.417H271.529L269.121 240.097H265.641L275.414 214.503H278.367L288.158 240.097H284.695L282.252 233.417ZM272.549 230.64H281.25L276.891 218.669L272.549 230.64ZM295.963 214.503L304.33 235.386L312.697 214.503H317.074V240.097H313.699V230.13L314.016 219.373L305.613 240.097H303.029L294.645 219.425L294.979 230.13V240.097H291.604V214.503H295.963ZM326.408 230.078V240.097H323.033V214.503H332.473C335.273 214.503 337.465 215.218 339.047 216.648C340.641 218.078 341.438 219.97 341.438 222.326C341.438 224.81 340.658 226.726 339.1 228.074C337.553 229.41 335.332 230.078 332.438 230.078H326.408ZM326.408 227.318H332.473C334.277 227.318 335.66 226.896 336.621 226.052C337.582 225.197 338.063 223.966 338.063 222.361C338.063 220.837 337.582 219.619 336.621 218.705C335.66 217.791 334.342 217.316 332.666 217.281H326.408V227.318ZM363.762 214.503V231.906C363.75 234.32 362.988 236.294 361.477 237.83C359.977 239.365 357.938 240.226 355.359 240.414L354.463 240.449C351.662 240.449 349.43 239.693 347.766 238.181C346.102 236.669 345.258 234.589 345.234 231.941V214.503H348.574V231.835C348.574 233.687 349.084 235.128 350.104 236.16C351.123 237.179 352.576 237.689 354.463 237.689C356.373 237.689 357.832 237.179 358.84 236.16C359.859 235.14 360.369 233.705 360.369 231.853V214.503H363.762ZM376.629 228.689C373.734 227.857 371.625 226.837 370.301 225.63C368.988 224.412 368.332 222.912 368.332 221.13C368.332 219.115 369.135 217.451 370.74 216.138C372.357 214.814 374.455 214.152 377.033 214.152C378.791 214.152 380.355 214.492 381.727 215.171C383.109 215.851 384.176 216.789 384.926 217.984C385.688 219.179 386.068 220.486 386.068 221.904H382.676C382.676 220.357 382.184 219.144 381.199 218.265C380.215 217.375 378.826 216.929 377.033 216.929C375.369 216.929 374.068 217.298 373.131 218.037C372.205 218.763 371.742 219.777 371.742 221.078C371.742 222.121 372.182 223.005 373.061 223.732C373.951 224.447 375.457 225.103 377.578 225.701C379.711 226.298 381.375 226.96 382.57 227.687C383.777 228.402 384.668 229.24 385.242 230.201C385.828 231.162 386.121 232.292 386.121 233.593C386.121 235.667 385.313 237.332 383.695 238.585C382.078 239.828 379.916 240.449 377.209 240.449C375.451 240.449 373.811 240.115 372.287 239.447C370.764 238.767 369.586 237.841 368.754 236.669C367.934 235.498 367.523 234.167 367.523 232.679H370.916C370.916 234.226 371.484 235.451 372.621 236.353C373.77 237.244 375.299 237.689 377.209 237.689C378.99 237.689 380.355 237.326 381.305 236.599C382.254 235.873 382.729 234.882 382.729 233.628C382.729 232.375 382.289 231.408 381.41 230.728C380.531 230.037 378.938 229.357 376.629 228.689ZM413.525 233.417H402.803L400.395 240.097H396.914L406.688 214.503H409.641L419.432 240.097H415.969L413.525 233.417ZM403.822 230.64H412.523L408.164 218.669L403.822 230.64ZM432.264 229.744H426.252V240.097H422.859V214.503H431.332C434.215 214.503 436.43 215.16 437.977 216.472C439.535 217.785 440.314 219.695 440.314 222.203C440.314 223.796 439.881 225.185 439.014 226.369C438.158 227.552 436.963 228.437 435.428 229.023L441.439 239.886V240.097H437.818L432.264 229.744ZM426.252 226.984H431.438C433.113 226.984 434.443 226.55 435.428 225.683C436.424 224.816 436.922 223.656 436.922 222.203C436.922 220.621 436.447 219.408 435.498 218.564C434.561 217.72 433.201 217.292 431.42 217.281H426.252V226.984ZM461.338 217.281H453.111V240.097H449.754V217.281H441.545V214.503H461.338V217.281Z" fill="white"/>
</svg>
